<svg id="Layer_1" data-name="Layer 1" xmlns="http://www.w3.org/2000/svg" viewBox="0 0 24.9 16.88"><defs><style>.cls-1{fill:#39b54a;}</style></defs><path class="cls-1" d="M28.45,19.75a4.31,4.31,0,0,1-4.4,4.69,4.19,4.19,0,0,1-4.23-4.54c0-3,1.94-4.69,4.38-4.69S28.45,17.05,28.45,19.75Zm-7,.09c0,1.94,1.11,3.4,2.68,3.4s2.68-1.44,2.68-3.43c0-1.5-.75-3.39-2.65-3.39S21.45,18.17,21.45,19.84Z" transform="translate(-3.55 -7.56)"/><circle class="cls-1" cx="5.3" cy="1.69" r="1.69"/><path class="cls-1" d="M8.07,10.67a.46.46,0,0,1,.25-.26.91.91,0,0,1,.41-.08.85.85,0,0,1,.52.16.35.35,0,0,1,.12.45c-.38,1-.78,2.09-1.21,3.28s-.84,2.37-1.25,3.55c.59-1.18,1.18-2.3,1.75-3.37a21.4,21.4,0,0,1,1.64-2.64,6.11,6.11,0,0,1,.87-1,1.42,1.42,0,0,1,.92-.44.66.66,0,0,1,.55.36A3,3,0,0,1,13,12a9.43,9.43,0,0,1,0,1.89c-.07.7-.17,1.37-.29,2l.6-.86a10.34,10.34,0,0,1,.78-1,5.08,5.08,0,0,1,.92-.78,1.84,1.84,0,0,1,1-.32.82.82,0,0,1,.6.25,1.44,1.44,0,0,1,.28.89,5.16,5.16,0,0,1-.07,1.06q-.11.62-.24,1.32c-.14.63-.26,1.29-.37,2a5.54,5.54,0,0,0,0,1.82c.11.57.35.86.73.86a2.4,2.4,0,0,0,.91-.29,8.63,8.63,0,0,0,1.36-1c.48-.41.69-1,1.11-1.37s.79-1.39,1.35-2a.33.33,0,0,1,.25-.12.29.29,0,0,1,.25.1.31.31,0,0,1,0,.5c-.56.6-.91,1.45-1.34,1.86S20,20,19.51,20.45a9,9,0,0,1-1.55,1,3.7,3.7,0,0,1-.77.28,3.21,3.21,0,0,1-.81.1,1.92,1.92,0,0,1-1-.29,1.42,1.42,0,0,1-.56-1.05,5.37,5.37,0,0,1,0-1.65c.08-.64.18-1.28.3-1.93.09-.49.17-.95.24-1.39a5.14,5.14,0,0,0,.08-1.11c0-.3-.06-.45-.14-.45a.49.49,0,0,0-.31.16,5.8,5.8,0,0,0-1,1.07c-.33.45-.64.9-.91,1.34s-.49.85-.67,1.19-.27.55-.3.59a1.25,1.25,0,0,1-.41.46.89.89,0,0,1-.46.13.49.49,0,0,1-.42-.21.63.63,0,0,1,0-.6c.13-.43.23-.8.31-1.14l.27-1.14c.1-.43.19-.87.28-1.31s.14-.86.19-1.28.07-.77.07-1.08a3,3,0,0,0-.09-.64c-.05-.13-.11-.2-.19-.2s-.22.08-.35.24l-.42.53c-.28.41-.6.91-.94,1.5s-.69,1.24-1.07,1.95S8.11,17,7.72,17.77,7,19.34,6.55,20.11L5.74,21.8c-.28.55-.54,1.07-.8,1.57a1.3,1.3,0,0,1-.44.46A1,1,0,0,1,4,24a.48.48,0,0,1-.42-.23.64.64,0,0,1,.06-.63c.21-.62.45-1.31.73-2.07l.86-2.44L6,16.54c.24-.69.49-1.38.73-2.06l.71-2Z" transform="translate(-3.55 -7.56)"/></svg>