<svg id="Layer_1" data-name="Layer 1" xmlns="http://www.w3.org/2000/svg" viewBox="0 0 633.97 970.21"><defs><style>.cls-1{fill:#37b34a;}.cls-2{fill:#fff;}</style></defs><rect class="cls-1" width="633.7" height="733.1" rx="51.67"/><path class="cls-2" d="M839,667c0,80.07-55.47,115-107.81,115-58.6,0-103.77-42.95-103.77-111.39,0-72.47,47.41-115,107.35-115C796.91,555.58,839,600.76,839,667ZM667.19,669.2c0,47.42,27.28,83.2,65.75,83.2,37.58,0,65.76-35.34,65.76-84.1,0-36.68-18.34-83.2-64.86-83.2S667.19,628.05,667.19,669.2Z" transform="translate(-221.65 -64.32)"/><path class="cls-1" d="M253,836.46c54.23,78.22,173.26,246.71,282.4,173.32a199.36,199.36,0,0,0,17.85-14.19q8.88-7.5,17.91-14.83c60.1-48.7,124.92-93.5,197.73-120.89,21.75-8.33,44.37-13.8,66.76-19.89,7.24-2.27,15.14-4.53,20-10.77-4.54,6.49-12.49,9.23-19.64,11.83-7.35,2.48-14.79,4.59-22.17,6.87-96.58,28.66-179.76,89-256,153-11.82,10.38-24.73,20-39.47,25.91C447.6,1055.47,379.71,998.52,335,949c-31.24-34.5-57.08-73.35-82-112.51Z" transform="translate(-221.65 -64.32)"/><circle class="cls-2" cx="136.56" cy="345.02" r="41.46"/><path class="cls-2" d="M339.13,444.1a11,11,0,0,1,6.13-6.4,24.83,24.83,0,0,1,10-1.95,21.88,21.88,0,0,1,12.81,3.9q5.55,3.9,2.78,11.13-13.92,36.74-29.5,80.43t-30.61,87.1q21.71-43.41,42.85-82.65t40.08-64.84a161.22,161.22,0,0,1,21.42-23.66q12-10.85,22.55-10.85,7.78,0,13.63,8.91t7.52,31.72q1.67,20.6-1.12,46.47t-7.23,49.26q6.12-8.89,14.75-21.15a224.75,224.75,0,0,1,19.2-23.65,120.09,120.09,0,0,1,22.54-19.21q12-7.79,24.21-7.79A19.58,19.58,0,0,1,545.9,507q5.83,6.13,7,21.71a124.05,124.05,0,0,1-1.94,26.16q-2.5,15-5.85,32.28-5,23.37-8.9,48.42t0,44.53Q540,701.24,554,701.24q7.78,0,22.26-7.24,15.57-8.36,33.39-23.38c11.87-10,17-23.78,27.24-33.61s19.32-34.15,33-48.62a9.75,9.75,0,0,1,6.12-3.06,7.56,7.56,0,0,1,6.12,2.51q6.69,6.12.56,12.24C669,614.92,660.52,635.72,650,645.74S632.63,673.6,619.64,684,594,702.54,581.8,708.47a91.59,91.59,0,0,1-18.93,7,82.26,82.26,0,0,1-20,2.5,45.89,45.89,0,0,1-25.6-7.23q-11.14-7.23-13.92-25.6-2.79-17.25.28-40.63t7.51-47.31q3.35-17.8,5.85-33.95t1.94-27.27q-.55-11.13-3.33-11.14c-2.23,0-4.83,1.31-7.8,3.9q-12.24,10-24.49,26.44T461,588q-10,16.42-16.42,29.22t-7.51,14.48q-4.45,7.79-10,11.13a21.56,21.56,0,0,1-11.13,3.34,11.74,11.74,0,0,1-10.3-5.29q-3.61-5.28.28-14.75,4.45-15.57,7.52-27.83t6.67-28.1q3.61-15.87,6.68-32t4.73-31.44a246.63,246.63,0,0,0,1.67-26.44q-.56-11.13-2.22-15.86c-1.12-3.15-2.6-4.73-4.46-4.73q-3.9,0-8.62,5.84t-10.3,13.08q-10.57,15-23.1,36.73t-26.15,47.87q-13.65,26.16-27.83,55.1t-28.67,57.32q-10,21.17-20,41.47t-19.48,38.68q-5,7.8-10.85,11.13a22.94,22.94,0,0,1-11.41,3.34,11.46,11.46,0,0,1-10.3-5.84q-3.61-5.85,1.39-15.31,7.78-22.82,17.81-50.93t21.15-59.83q8.36-24.48,17.25-50.09t17.81-50.64q8.9-25.05,17.54-49T339.13,444.1Z" transform="translate(-221.65 -64.32)"/></svg>